# xmcd
#
# Track frame offsets:
#	150
#	23093
#	43682
#	63140
#	80004
#	99247
#	118822
#	137898
#	155646
#	169138
#	184839
#	204222
#	223774
#	242828
#	264409
#
# Disc length: 3761 seconds
#
# Revision: 1
# Processed by: cddbd v1.5.2PL0 Copyright (c) Steve Scherf et al.
# Submitted via: EasyCDDAExtractor 15.3.0.1
#
DISCID=d10eaf0f
DTITLE=Varios Artistas - People En Español - Lo Mas Romantico De La Balada
DYEAR=2002
DGENRE=Latin
TTITLE0=Alejandro Sanz - Amiga Mia
TTITLE1=Joan Sebastian - Secreto De Amor
TTITLE2=Laura Pausini - Amores Extraños
TTITLE3=MDO - Me Huele A Soledad
TTITLE4=Luis Enrique - Sera
TTITLE5=Pepe Aguilar - Por Mujeres Como Tu
TTITLE6=Los Hidalgo - Pacto De Amor
TTITLE7=Pablo Montero - Que Voy A Hacer Sin Ti
TTITLE8=Francisco Cespedes - Donde Esta La Vida
TTITLE9=Ednita Nazario - Dime
TTITLE10=Nek - Quedate
TTITLE11=So Pra Contrariar - Cuando Acaba El Placer
TTITLE12=Gilberto Santa Rosa - Pueden Decir
TTITLE13=Carolina Lao - Dulce Veneno
TTITLE14=Ricardo Montaner - Besame
EXTD=YEAR: 2002
EXTT0=
EXTT1=
EXTT2=
EXTT3=
EXTT4=
EXTT5=
EXTT6=
EXTT7=
EXTT8=
EXTT9=
EXTT10=
EXTT11=
EXTT12=
EXTT13=
EXTT14=
PLAYORDER=
